<?xml version="1.0" encoding="UTF-8"?>
<svg id="Laag_1" xmlns="http://www.w3.org/2000/svg" version="1.1" viewBox="0 0 708.48 1484.64">
  <!-- Generator: Adobe Illustrator 29.6.0, SVG Export Plug-In . SVG Version: 2.1.1 Build 207)  -->
  <defs>
    <style>
      .st0 {
        fill: none;
        stroke: #000;
      }
    </style>
  </defs>
  <g id="Left_metatarsal_arteries">
    <g>
      <path d="M432.94,1387.63c.61,1.68-1.19,2.33-1.42,3.56-2.56,13.68-5.67,27.75-8.18,41.45-.12.64-1.29,2.81-2.12,2.64-2.27-1.44-.59-3.5-.31-5.53,1.8-12.63,4.53-25.12,7.14-37.73.31-1.48.02-3.12.57-4.59l4.32.19h0Z"/>
      <path d="M456.41,1391.49c.62,3.3-.68,6.46-.91,9.69-.64,9.01-.61,18.16-1.43,27.19-.25,2.74-.59,5.86-.95,8.6-.09.67.26.81-.73.71-3.2-.53-.82-6.51-.7-8.81.39-7.27.06-14.66.47-21.94.3-5.31,1.51-10.6.96-15.98l3.29.55h0Z"/>
      <path d="M505.44,1388.56c.66,2.74,1.03,5.52,1.49,8.3,1.18,7.03,2.35,13.88,3.36,20.98.2,1.44,2.64,9.43.66,9.82-1.85.36-2.05-4.19-2.3-5.33-2.15-9.95-4.74-20.75-6.56-30.69-.48-2.6,1.11-2.89,3.34-3.07h.01Z"/>
      <path d="M481.92,1393.81l1.92,40.05-1.88-.04c.04-.9-.37-1.77-.45-2.65-1-10.58-1.29-21.22-2.52-31.83-.21-1.84-1.08-3.65-.91-5.54h3.84Z"/>
      <path d="M532.8,1415.74c-1.44.47-2.02-1.07-2.29-2.25-1.08-4.75-2.51-9.91-3.74-14.88-1.38-5.55-2.83-11.15-3.8-16.75l2.4-1.39,7.43,35.28h0Z"/>
    </g>
  </g>
  <g id="Left_plantar_arch">
    <path d="M464.91,1286.29c.7.85,1.59,1.7,2.45,2.2,7.22,4.2,15.08,11.44,21.49,16.84.77.65,2.49,1.81,3.45,2.26,15.54,14.07,42.39,41.78,34.54,63.45-1.17,3.22-2.88,4.23-2.17,8.3.4,2.32,2.89,5.09-1.46,5.99-.39-1.85-.69-3.62-.97-5.5-.09-.62.29-.86-.72-.72-3.26.46-11.05,7.66-15.62,7.39-1.58,2.81.57,5.57.5,8.39l-3.26-.11-1.85-6.62-19.38,2.43v3.35l-3.77-.54-.13-2.26c-.51-.24-1.09-.42-1.65-.49-6.33-.82-16.27,1.15-21.94-.15-4.44-1.01-10.84-4.14-14.64-6.07-1.67-.85-3.43-1.66-5.14-2.44-1.08-.14-.57.17-.7.72-.4,1.65-1.02,3.29-.98,5.02l-3.82-.5c-.49-.56,1.6-8.18,1.34-9.66-.34-2-3.95-5.97-4.6-8.84-5.51-24.38,16.47-62.79,32.83-80.28.54-.57,1.16-1.78,1.8-2.16l1.95-.11,2.45.11ZM467.32,1292.82c-1.41-.92-2.82-1.91-4.37-2.6-.65,0-3.33,2.82-3.9,3.52-11.33,14.13-28.63,42.27-29.93,60.29-1.29,17.9,2.93,25.21,19.6,31.15,14.86,5.29,33.91,3.18,49.4.27,18.16-3.41,29.95-11.89,24.93-32.24-5-20.3-38.23-49.03-55.74-60.39h0Z"/>
  </g>
  <g id="Left_lateral_plantar_artery">
    <path d="M422.4,1255.64c.44-.33.53,0,4.08,0l-5.89,19.05c-4.95,24.2-11.7,48.38-15.44,72.7-4.15,27.01-7.35,52.31-5.8,80.44.09,1.55,2.62,10.84-.7,9.79-.69-.22-.63-1.12-.73-1.67-6.3-36.49.4-73.29,7-108.9,3.15-17.01,6.42-34.48,10.88-51.39,1.39-5.25,3.29-10.42,4.69-15.68l1.91-4.34Z"/>
  </g>
  <g id="Left_dorsal_pedal_artery">
    <path d="M497.32,1232c-.04.06.19-.45,0,0-4.53,11.03-11.67,22.57-17.78,32.39-4.36,7-9.56,15.37-14.63,21.9-4.36,0-4.39.16-4.39.16.18-.54,4.23-6.06,4.44-6.38,10.26-15.68,19.62-31.18,27.37-47.62l12.36-19.28c1.19-.66,5.92-.26,5.76,0l-13.12,18.83Z"/>
  </g>
  <g id="Left_medial_plantar_artery">
    <path d="M431.7,1259.25c6.13,8.54,11.75,12.64,16.98,16.73,2.13,1.66,10.81,8.12,12.8,9,0,0,.16.06-.97,1.47-.97,1.35-1.36,1.06-.97,1.35l-20.8-14.99c-1.61-1.37-12.27-15.3-12.27-17.17h3.13c.67,1.27,1.38,2.51,2.1,3.61h-.01Z"/>
  </g>
  <g id="Right_metatarsal_arteries">
    <g>
      <path d="M279.36,1381.88c.04,1-.12,2.05.05,3.05,2.67,15.56,6.44,30.77,8.64,46.22.29,2.02,1.96,4.08-.31,5.52-2.72-.95-1.75-3.69-2.16-5.45-3.11-13.3-5.57-27.94-9.48-40.62-.57-1.85.6-4.38-1-6.19l.15-.63,4.11-1.9h0Z"/>
      <path d="M255.84,1439.06l-3.39-45.52.31-.75,3.08-.9c-.56,5.54.66,10.98.96,16.44.4,7.28.07,14.67.47,21.93.15,2.76,2.9,8.76-1.42,8.79h0Z"/>
      <path d="M203.52,1389.98c1.61.78,3.75.67,3.36,3.06-.12.71-.83,1.24-.94,1.96-1.5,9.53-3.6,19.35-5.63,28.72-.25,1.14-.45,5.69-2.3,5.33-1.98-.39.46-8.37.66-9.81,1.01-7.1,2.18-13.94,3.36-20.97.47-2.78.83-5.55,1.49-8.29h0Z"/>
      <path d="M230.88,1393.32c.48,2.61-.66,5.02-.91,7.44-1.18,11.52-1.67,23.01-2.97,34.46l-1.88.04,1.92-41.94h3.84Z"/>
      <path d="M186.72,1381.89c-1.78,5.97-3,12.1-4.53,18.14-1.25,4.96-2.66,10.12-3.74,14.87-.27,1.18-.85,2.73-2.29,2.25l7.2-36.22,3.36.96Z"/>
    </g>
  </g>
  <g id="Right_plantar_arch">
    <path d="M252.18,1291.47c2.95,2.79,6.27,7.44,8.61,10.81,11.87,17.12,27.11,45.57,22.28,66.92-1.1,4.87-6.39,7.69-3.94,13.29l-4.09,1.89v-1.91c-.41-.42-4.99,2-5.86,2.44-2.37,1.19-4.63,2.57-7.51,3.62-1.34.49-3.85.62-5.01,1.22-1.24.64-1,2.04-3.54,2.27-1.54.14-.78-.84-1.81-.98-2.38-.32-17.69-.29-19.51.27-.37.12-.85.12-.95.57l-.05,4.87-3.77.55v-6.22l-19.37-2.43-.92,4.93c-1.14.76-.24,3.23-1.55,3.25-5.82.13-.09-6.25-1.88-9.61-2.26-.66-4.48-1.5-6.6-2.51-1.4-.66-9.45-5.67-9.99-5.11.06,4.07-1.8,7.94-2.41,11.95l-1.95-.21c-1.7-2.56.42-4.81.89-6.82.43-1.87,1.32-6.32,1.08-8.05-.22-1.62-1.62-3.32-2.22-4.96-7.77-21.45,19.28-50.68,35.6-63.8,1.68-1.85,3.88-3.29,5.75-4.79,5.1-4.09,12.53-10.95,18.14-13.97,2.01-1.08,3.83-2.59,5.97-1.88,2.01.66,3.5,3.36,4.6,4.4h.01ZM249.9,1294.21c-.73-.91-3.22-3.71-4.27-3.45-4.05,2.72-8.25,5.36-12.15,8.25-15.28,11.35-42.99,36.01-47.59,54.67-5.01,20.36,6.77,28.84,24.93,32.25,15.48,2.91,34.53,5.02,49.4-.27,16.67-5.94,20.89-13.25,19.6-31.16s-18.6-46.17-29.93-60.3h0Z"/>
  </g>
  <g id="Right_lateral_plantar_artery">
    <path d="M287.04,1254.71c-.02.67-.08,1.36.13,2.02,9.05,28.1,14.33,57.12,19.11,85.8,5.3,31.77,9.89,60.43,4.28,92.93-.1.55-.04,1.45-.73,1.67-3.33,1.05-.81-7.9-.72-9.34.91-15.42.92-33.54-.98-48.8-.83-6.71-2.49-13.3-3.33-20.14-3.52-28.67-10.78-62.66-18.98-90.71-.43-1.47-1.54-7.91-2.91-8.14l-.35-5.29h4.48s0,0,0,0Z"/>
  </g>
  <g id="Right_medial_plantar_artery">
    <path d="M283.1,1260.23c-.14.24-1.61.67-2.14,1.2-8.1,10.19-32.41,26.14-32.41,26.14l-3.13-.54c4.69-3.62,16.38-12.06,20.81-15.98,3.04-2.69,9.12-8.69,11.18-12.09.75-1.24,1.61-3.37,1.95-4.82l3.2.57.54,5.52Z"/>
  </g>
  <g id="Right_dorsal_pedal_artery">
    <path d="M209.09,1214.61c.21.07,5.98,12.34,6.15,12.75,7.71,17.59,16.01,32.67,26.68,49.26.73,1.14,6.52,6.68,5.95,8.67l-3.54,2.51c-3.92-5.65-11.31-18.08-14.93-23.91-6.34-10.19-13.35-22.09-18.64-33.15-.45-.94-2.36-4.97-2.47-5.56-.18-1-6.21-12.99-5.73-13.17.79-.3,0,0,5.75-.01l.77,2.61Z"/>
  </g>
  <g id="Left_posterior_tibial_artery">
    <path d="M422.4,1255.64c-.19.16,19.85-44.75,19.85-44.75,1.55-3.39,1.29-2.55,1.55-3.39,1.36-4.42,2.36-9.26,3.58-13.68,13.72-49.61,21.28-99.7,27.24-150.64,4.98-42.49,9.6-85.27,15.79-127.56,2.92-19.98,5.31-40.25,14.28-58.13.83-1.65,1.73-3.21,2.82-4.85h7.71c-4,8.4-9.23,25.34-11.75,34.31-7.15,25.41-9.61,53-12.95,79.11-9.6,75.03-16.49,150.79-36.16,223.7-1.9,7.04-23.2,58.76-24.75,65.88h-7.21Z"/>
  </g>
  <g id="Right_posterior_tibial_artery">
    <path d="M279.62,1254.71c-.43-2.14-19.59-48.75-20.23-50.82-23.69-76.49-30.56-158.42-40.72-237.86-4.12-32.22-7.01-66.82-19.05-97.47-1.18-3.01-5.48-14.08-4.84-17.53,0,0,5.41-.1,6.85,0,.85,1.88,1.95,4.63,2.87,6.42,8.9,17.35,11.42,38.61,14.28,58.13,6.19,42.3,10.81,85.09,15.79,127.58,5.96,50.91,13.51,101.08,27.24,150.65,1.22,4.41,23.85,56.49,25.22,60.9.31.99,0,0,0,0h-7.42Z"/>
  </g>
  <g id="Left_peroneal_artery">
    <path d="M493.82,1170.6c1.11,1.86,4.2,3.12,3.2,5.41-4.85-1.73-3.27-4.34-9.32-3.31-.96.16-5.03,2.45-5.08-.04,1.24.41,1.31-.71,1.8-.94.56-.26,1.46-.49,2.43-.92,2.13-.96,2.99-.13,3.4-3.22,1.82-13.87,4.65-27.52,6.75-41.2,8.36-54.43,17.34-109.44,24.94-164.43,1.53-11.08,2.2-22.37,3.91-33.48,1.17-7.57,3.57-19.18,2.35-26.84-.45-2.82-1.79-7.04-2.35-10.12-1.42-7.78-3.33-14.09-6.26-21.55-.71-1.82-4.32-16.16-4.37-17.32h6.85c.08.48.58,2.87.82,3.28,3.24,8.81,8.04,18.8,10.02,28.05,5.4,25.2-.83,51.77-4.67,76.61-7.24,46.9-14.75,93.33-22.64,140.36-3.65,21.74-7.88,43.81-11.01,65.7-.18,1.26-1.54,2.53-.78,3.96h.01Z"/>
  </g>
  <g id="Right_peroneal_artery">
    <path d="M220.65,1169.62c1.75.8,3.47,2.13,5.25,2.09l1.8,1.89c-2.96.52-5.39-1.39-8.34-1.26-2.15.09-3.39,3.42-5.8,3.67-.68-.51-.59-1.38-.26-2.05.18-.37,3.24-3,3.36-3.58.34-1.63-.74-2.46-.93-3.75-5.52-37.14-12.62-73.95-18.37-111.07-4.89-31.59-10.14-63.3-15.27-94.99-5.86-36.13-12.27-64.7,2.81-100.29.52-1.23,4-8.52,4.65-8.78h6.22c-1.23,3.28-3.75,15.19-5.02,18.45-4.91,12.53-9.88,30.51-8.63,44.1.18,1.98,1.19,3.76,1.4,5.31.29,2.12-.28,4.67,0,6.71,6.25,44.35,12.41,88.87,19.26,133.19,2.83,18.29,6.73,36.98,9.06,55.19,1.95,15.27,4.75,30.99,7.28,46.42.48,2.91,1.03,5.87,1.54,8.77v-.02Z"/>
  </g>
  <g id="Right_anterior_tibital_artery">
    <path d="M202.56,1212c-1.34-3.86-3.3-7.46-4.82-11.24-4.71-11.7-8.4-23.03-12.1-34.9-8.16-26.18-13.98-50.43-19.05-75.42-6.33-31.2-12.8-61.71-19.14-93.07-2.39-11.83-4.73-23.97-6.75-35.92-3.13-18.5-5.03-36.78-6.3-55.56-1.24-18.32-2.11-35.47,2.53-52.62,1.29-4.75,7.07-13.35,10.81-16.64,5.15-4.51,11.43-7.59,17.45-10.74l19.41-7.85c1.09.2,2.37,8.43,1.19,9.23-10.85,3.18-23.07,7.54-31.59,15.08-6.32,5.59-7.93,8.76-10.23,16.99-5.83,20.85-3.26,46.14-.93,67.63,1.72,15.9,4.55,31.39,7.33,46.85,5.08,28.27,10.81,56.86,16.3,84.4,7.78,38.95,15.54,78.59,27.39,115.99,3.02,9.55,7.56,20.42,13.14,35.77.27.74.65,1.39,1.11,2.01h-5.76,0Z"/>
  </g>
  <g id="Left_anterior_tibial_artery">
    <path d="M504.68,1213.17c1.48-3.94,1.01-2.77,1.48-3.94,9.08-22.32,16.4-43.74,22.29-67,4.14-16.33,7.33-32.69,10.81-49.13,4.29-20.28,8.22-40.06,12-59.93,3.67-19.27,7.87-38.7,11.37-58.16,2.78-15.46,5.61-30.95,7.33-46.85,2.33-21.5,4.9-46.79-.93-67.63-4.21-15.04-12.97-21.03-27.14-27.06-5.22-2.22-10.74-3.7-15.98-5.85-.5-3.35.06-6.42,1.34-9.49l4.02,2.47c13.35,5.29,31.1,11.12,39.49,23.34,4.15,6.05,5.07,11.13,6.5,17.49.75,3.33.91,4.09,1.35,7.76,2.87,24.1-.41,48.81-3.31,72.45-2.35,19.13-5.94,38.16-9.73,56.92-6.34,31.35-12.81,61.87-19.14,93.07-5.22,25.69-11.26,50.44-19.05,75.42-3.7,11.87-7.39,23.19-12.1,34.9-1.52,3.78-3.48,7.39-4.82,11.24h-5.76l-.02-.02Z"/>
  </g>
  <g id="Right_tibioperoneal_trunk">
    <polygon points="195.71 818.56 201.64 851.57 189.29 851.57 183.36 818.56 195.71 818.56"/>
  </g>
  <g id="Left_tibioperoneal_trunk">
    <path d="M514.97,824.63l11.16-.04-.16,4.97c-3.92-.29.5-2.08,0,0-1.55,6.54-2.37,7.72-3.61,14.17-.35,1.83-1.43,7.58-.3,9.07.04.05,0,.13-.06.13h-14.71q1.45-2.04,1.8-3.18c2.23-7.31,3.47-15.41,4.94-22.98.15-.78.85-1.34.93-2.15h0Z"/>
  </g>
  <g id="Left_popliteal_artery_artery">
    <path d="M515.11,824.59c.05-1.68.29-3.41.61-5.05,2.68-14.05,6.88-27.99,8.96-41.62,5.41-35.55,8.84-69.7,5.77-106.1-2.03-24.1-6.37-47.82-9.08-71.61-.41-3.56-1.02-6.62-1.43-9.88-.31-2.46.27-5.09-.52-7.6h13.9c.08,1.2-.17,2.51.03,3.68,1.93,11.76,3.36,22.72,4.76,34.58,1.85,15.66,3.33,31.53,4.8,47.37,3.3,35.56,1.24,66.61-4.75,101.25-2.98,17.22-7.09,32.18-10.97,48.43-.45,1.87-.75,4.59-1.06,6.56h-11.02v-.02Z"/>
  </g>
  <g id="Right_popliteal_artery_artery">
    <path d="M190.48,591.84c-.38.99-.8,2.14-.91,3.19-1.38,13.6-3.19,27-4.9,40.41-2.29,17.92-4.18,35.66-5.21,53.57-1.61,27.92,2.49,57.27,6.73,84.41,2.08,13.33,6.35,26.94,8.97,40.68.28,1.46.47,2.98.61,4.45h-11.04c-.5-1.8-.64-4.25-1.06-5.93-5.39-21.52-12.01-44.09-14.3-66.67-1.77-17.49-3.87-35.26-3.38-53.08s2.72-33.81,4.34-50.64c1.32-13.77,2.99-28.14,4.81-41.48.41-2.97.72-6.02,1.44-8.92h13.92-.02Z"/>
  </g>
  <g id="Left_superficial_femoral_artery">
    <path d="M545.84,292.8c.42,2.05-1.09,3.96-1.41,5.7-5.48,29.96-8.21,60.19-14.46,90.25-6.99,33.64-7.72,65.64-5.75,100.33,1.59,28,4.57,55.91,8.15,83.51.44,3.36.79,6.8.99,10.19h-13.92c-.07-1.41.15-2.86-.05-4.26-2.73-19.16-5.84-38.15-8.07-57.26-4.64-39.7-6.27-80.19-.63-119.88,3.9-27.48,10.25-54.31,13.56-81.57.89-7.32,2.38-14.64,3.33-21.81.22-1.67-.09-3.5.03-5.2h18.24-.01Z"/>
  </g>
  <g id="Right_superficial_femoral_artery">
    <path d="M181.36,289.23c.13,2.11-.2,4.38.03,6.47.81,7.6,2.44,15.41,3.33,23.16,3.31,28.94,9.66,57.42,13.56,86.59,5.64,42.13,4,85.11-.63,127.25-2.39,21.73-5.16,43.75-8.15,65.53-.16,1.17-1.25,2.26-.93,3.64h-13.44c.32-4.89.87-9.81,1.47-14.67,3.61-29.27,6.57-58.93,8.15-88.65,1.97-36.83,1.24-70.79-5.75-106.52-6.25-31.92-8.92-64.02-14.46-95.81-.32-1.86-1.83-3.88-1.41-6.05l-2.4.48v-1.45h20.64,0Z"/>
  </g>
  <g id="Right_profunda_femoral_artery">
    <path d="M166.6,270.23v25.07l-.48-2.37-18.36,4.26c-1.19-.21-4.5-9.3-4.71-11.04,1.54-.81,3.04-1.91,4.57-2.71,5.45-2.86,13.02-4.75,16.46-10.48.4-.66,0-1.71.11-2.46l2.41-.27h0Z"/>
  </g>
  <g id="Left_profunda_femoral_artery">
    <path d="M542.89,266.18c.65,1.06.87,4.39,1.17,4.91,3.51,5.93,12.21,8.19,17.94,11.13,1.67.86,3.3,2.02,4.97,2.88-.23,1.85-3.84,11.5-5.13,11.72l-20-4.52c.45.96-.47,2.06-.53,2.52v-28.63h1.58Z"/>
  </g>
  <g id="Left_common_femoral_artery">
    <path d="M545.76,209.76c-.38,17.08.49,34.26.02,51.34-.18,6.55-1.79,13.86-1,20.77.17,1.51,1.11,5.73,2.12,6.29l2.71,4.65h-22.08l.48-83.04h17.76-.01Z"/>
  </g>
  <g id="Right_common_femoral_artery">
    <path d="M180.96,207.24l.48,82.52h-20.64c.22-.76,2.35-3.24,2.4-3.45,2.19-9.51.23-17.14-.02-26.35-.48-17.53.4-35.19.02-52.74h17.76Z"/>
  </g>
  <g id="Left_external_iliac_artery">
    <path d="M469.45,120.45c22.01,6.08,43.67,17.24,58.19,35.78,12.14,15.5,16.83,33.82,18.12,53.44.09,1.43-.04,2.87,0,4.3h-18.1c-.03-.89.11-1.84-.05-2.73-2.12-11.59-3.08-21.28-7.67-32-6.33-14.77-17.56-26.4-31.71-33.46-5.83-2.91-12.31-5.77-18.77-6.64v-18.7h0Z"/>
  </g>
  <g id="Left_internal_iliac_artery">
    <path d="M469.44,133.21v5.47c-3.38,1.28-7.16,8.12-10.54,8.46s-11.1-3.24-15.2-2.6c-3.64-1.32-4.99-.76-1.51-3.85.54-.48,1.45-.65,1.99-1.18,1.54-1.52,3.83-4.12,3.79-6.27l21.48-.03h-.01Z"/>
  </g>
  <g id="Left_common_iliac_artery">
    <path d="M348.3,81.59l33.9.1c9.03,8.72,18.39,13.6,29.77,18.32,27.14,11.29,56.32,17.67,82.85,29.7l6.84,3.5h-54.02l-45.84-17.43c-9.12-7.22-19.17-12.94-28.88-19.23-3.94-2.55-18.59-13.63-21.6-14.36-.98-.24-2.03-.08-3.02-.1v-.5h-.01Z"/>
  </g>
  <g id="Right_extrnal_iliac_artery">
    <path d="M238.56,138.11c-21.88,5.2-40.8,17.66-50.02,38.36-.59,1.32-1.54,2.6-1.72,3.04-2.45,5.94-3.43,14.28-4.43,20.45-.43,2.64-1.11,5.23-1.43,7.89h-17.76c-.2-2.99.67-5.91.96-8.84.37-3.84.2-6.45,1.08-10.39,7.38-32.83,30-53.05,60.86-64.1,4.11-1.47,8.47-2.31,12.47-4.07v17.67h-.01Z"/>
  </g>
  <g id="Right_internal_iliac_artery">
    <path d="M238.58,132.21l20.47.1c.75,2.35,7.62,7.48,7.83,8.85s-2.89.92-3.6,1.9c-1.16.35-2.45-.06-3.57.17-2.49.51-10.5,3.04-12.28,2.85-3.66-.43-5.49-6.43-8.85-7.51v-6.35h.01Z"/>
  </g>
  <g id="Right_common_iliac_artery">
    <path d="M335.98,70.29h18.49v10.61l-3.16,1.01c-8.69,9.47-17.4,19.74-27.9,27.09-18.01,12.59-38.58,16.63-59.03,22.95-.26.08-1.53,1.47-3.05,1.47h-55.21l6.9-3.58c31.35-14.2,65.93-21.37,97.27-36.38,7.96-3.81,13.97-7.3,19.86-14.34,2.1-2.5,4.62-5.81,5.85-8.82h-.01Z"/>
  </g>
  <g id="Aorta">
    <g id="Generatief_object">
      <path d="M337.88,1.02l32.94.04-.09,60.63c2.11,7.86,7.01,14.34,12.31,20.31l-54.72-.13c4.02-5.28,8.28-10.87,9.42-17.6l.13-63.25Z"/>
    </g>
  </g>
  <path class="st0" d="M74.71,1262.08c36.29,3.52,73.73,7.38,105.68,24.96,6.82,3.76,13.62,8.21,21.36,9.03s16.77-3.58,17.83-11.29c.71-5.1-2.2-10.05-5.75-13.78-10.24-10.78-25.55-14.72-40.01-18.19-20.89-5.01-41.78-10.02-62.68-15.03-7.54-1.81-15.4-3.62-22.96-1.9s-14.66,8.11-14.44,15.86c.07,2.41,1.02,5.02,3.15,6.15,1.47.78,3.23.72,4.89.62,22.98-1.39,45.63-7.95,65.81-19.04"/>
</svg>